<svg width="12" height="12" viewBox="0 0 12 12" fill="none" xmlns="http://www.w3.org/2000/svg">
<path d="M0.277695 5.99982C0.277695 6.45129 0.64372 6.81732 1.09517 6.81729L5.18256 6.81725L5.18253 10.9046C5.18256 11.3562 5.54858 11.7222 6.00003 11.7221C6.45148 11.7221 6.8175 11.3561 6.8175 10.9047L6.81743 6.81725L10.9049 6.81731C11.3563 6.81731 11.7223 6.45129 11.7223 5.99988C11.7223 5.54834 11.3563 5.18238 10.9048 5.18238L6.81749 5.18232L6.81743 1.09502C6.8175 0.643545 6.45147 0.277519 5.99996 0.27755C5.54852 0.277525 5.1825 0.643544 5.18253 1.09498L5.1825 5.18232L1.09517 5.18234C0.64372 5.18231 0.277695 5.54834 0.277695 5.99982Z" fill="#939DAC"/>
</svg>
