<svg width="10" height="10" viewBox="0 0 10 10" fill="none" xmlns="http://www.w3.org/2000/svg">
<path d="M0.953727 0.953543C0.634484 1.27279 0.634484 1.79042 0.953727 2.10962L3.84398 4.99982L0.953736 7.89002C0.634493 8.20931 0.634493 8.72694 0.953736 9.04614C1.27298 9.36534 1.79061 9.36534 2.10981 9.04614L5.00001 6.15585L7.89021 9.04614C8.20941 9.36534 8.72703 9.36534 9.04623 9.04614C9.36552 8.72685 9.36552 8.20931 9.04623 7.89002L6.15612 4.99982L9.04623 2.10962C9.36552 1.79042 9.36552 1.27279 9.04623 0.953543C8.72703 0.634309 8.20941 0.634309 7.89021 0.953543L5.00001 3.84371L2.10981 0.953543C1.79061 0.634301 1.27297 0.634301 0.953727 0.953543Z" fill="#C04E4A"/>
</svg>
